<svg width="21" height="21" viewBox="0 0 21 21" fill="none" xmlns="http://www.w3.org/2000/svg">
<path d="M10.0078 13.7969C10.0182 13.1771 10.0885 12.6875 10.2188 12.3281C10.349 11.9688 10.6146 11.5703 11.0156 11.1328L12.0391 10.0781C12.4766 9.58333 12.6953 9.05208 12.6953 8.48438C12.6953 7.9375 12.5521 7.51042 12.2656 7.20312C11.9792 6.89062 11.5625 6.73438 11.0156 6.73438C10.4844 6.73438 10.0573 6.875 9.73438 7.15625C9.41146 7.4375 9.25 7.8151 9.25 8.28906H7.80469C7.8151 7.44531 8.11458 6.76562 8.70312 6.25C9.29688 5.72917 10.0677 5.46875 11.0156 5.46875C12 5.46875 12.7656 5.73438 13.3125 6.26562C13.8646 6.79167 14.1406 7.51562 14.1406 8.4375C14.1406 9.34896 13.7188 10.2474 12.875 11.1328L12.0234 11.9766C11.6432 12.3984 11.4531 13.0052 11.4531 13.7969H10.0078ZM9.94531 16.2734C9.94531 16.0391 10.0156 15.8438 10.1562 15.6875C10.3021 15.526 10.5156 15.4453 10.7969 15.4453C11.0781 15.4453 11.2917 15.526 11.4375 15.6875C11.5833 15.8438 11.6562 16.0391 11.6562 16.2734C11.6562 16.5078 11.5833 16.7031 11.4375 16.8594C11.2917 17.0104 11.0781 17.0859 10.7969 17.0859C10.5156 17.0859 10.3021 17.0104 10.1562 16.8594C10.0156 16.7031 9.94531 16.5078 9.94531 16.2734Z" fill="#EB5757"/>
<circle cx="10.5" cy="10.5" r="10" stroke="#EB5757"/>
</svg>
